<svg id="Layer_1" data-name="Layer 1" xmlns="http://www.w3.org/2000/svg" viewBox="0 0 1956 2193.87"><defs><style>.cls-1{fill:#fff;}.cls-2{fill:#34b666;}.cls-3{fill:#a4d4fd;}.cls-4{fill:#1892fa;}</style></defs><title>logo_seul</title><path class="cls-1" d="M250,1495H-670V425c7.75,2.95,3,10.54,5.72,15.35,4.16,50.88,10.63,101.46,24.67,150.64,21.4,75,46.15,148.88,79.17,219.83s73.51,137.35,122.69,198.45c42,52.12,91.7,95.45,146.3,133.67,40.21,28.14,81.94,53.68,125.94,75.46,83.81,41.49,172.21,67.84,264.87,80,46,6,92.14,9.08,138.46,7.89,80.32-2.07,159-14.33,235.81-38.71,58.41-18.54,114.47-42.12,166.9-73.82q133.77-80.87,215.34-214.47c1.15-1.89,3.17-3.53,2.33-6.89-16.57-1.59-33.4-2.86-50.15-4.78-85.42-9.77-166.81-31.94-240.28-78.33-56.57-35.72-101-83.34-136.31-139.81-2.65-4.23-5.4-8.43-7.71-12.86-3.52-6.77-7.59-6.88-13.51-2.51-38,28-51.8,65.62-43.89,111.42a200.2,200.2,0,0,0,27.84,73.37c13.09,20.79,10.87,49.48-4.23,69.38-28.75,37.88-44.87,81.29-50.69,127.81-5.89,47-29.66,82.68-63.33,113.32-12.21,11.12-27.69,15.47-43.71,18.13-37.32,6.22-68.65-7.28-97.44-29.3-21.66-16.56-39.38-36.93-55.18-58.89-20-27.83-40.45-55.44-50.43-89.15-8.12-27.44-10.86-55.42-11.85-83.78C16.29,956.91,12,928,.58,900.53c-9.76-23.4-24.85-41.63-49.89-50-9.59-3.19-18.52-3.22-28,1.18-37.68,17.42-76.81,30.47-118,36.79s-82.08,4.79-120.79-11.87c-54.5-23.45-93.75-62.43-114.62-118.71-13.74-37-20.3-75.26-17.76-114.75,2.36-36.7,14.73-70.27,34.11-101.29,30-48,72.35-83.11,119.41-113.12,21.95-14,44.69-26.68,69.74-34.36,14-4.3,28.3-7.21,43.26-4.21,12.09,2.43,21.23,7.88,28.15,18.57,23.39,36.17,57.2,53.66,100.17,53.55,12.43,0,14-1.27,18-12.77,12-34.15,43.48-56.21,81.35-57.2,17.84-.46,35.16,2.7,52.35,6.93,6.81,1.68,13.57,3.34,20.69,3.06,15.43-.59,24.3-7.49,27.52-22.57,2-9.52,1.39-19.2,0-28.84-.94-6.53-4.54-8.31-10.54-7-11.86,2.68-23.9,1.35-35.87,1.54a42.84,42.84,0,0,1-13.74-2.4C73,338.93,65.91,328.47,67.81,314.81c3.19-23,14.16-40.63,36.26-50.14,14.65-6.31,30-9.35,45.83-8.17,20.12,1.5,36.22-7.35,51.2-18.93,10.7-8.27,10.55-16.75.79-25.88a41.9,41.9,0,0,0-13.63-8.17A297.2,297.2,0,0,0,108.94,184c-10.38-1.06-20.63,1.09-30.33,4.89C62.29,195.3,56,208.57,54.71,225a99.63,99.63,0,0,0,3.34,33.69c5.68,21-2.12,37.51-18.91,48.57A88.54,88.54,0,0,0,7.42,343.21c-2.5,5.08-6.19,9.5-9.82,13.85C-14,371-30.32,371-41.62,357c-9.93-12.34-16.24-26.73-21.83-41.38-5.27-13.83-11.73-27.05-21.65-38-10.24-11.34-22.52-19-38.91-14.64-2.75.73-6.78.77-7.17,4.32-.31,2.83,3.26,3.87,5.39,5.35,12.59,8.75,25.2,17.45,34.38,30.12,12.9,17.79,10.19,43.43-6.27,57.84-5.52,4.83-11.18,5.47-17,.24-4.27-3.86-8-8.21-10-13.58-3.36-9.26-10.13-15.35-17.56-21.19-13-10.18-27-18.45-42.58-23.78-33.78-11.59-62.91-2.07-88.62,20.89-21.21,18.95-36.14,42.59-49.4,67.38-4.87,9.1-9.69,18.26-13.47,27.9-1.49,3.79-3.48,7.56-7.11,9.42-23.15,11.86-47.17,20.43-73.77,15.68-17.91-3.21-35.88-19.23-33.63-39.75.67-6.07-2.15-11.72-3.84-17.47-6.52-22.21.09-40.1,19.33-52.94,10.42-7,22.18-10.63,34-14.26,19.77-6.08,27.28-22.78,18.54-41.63a70.62,70.62,0,0,0-19.42-25.09C-415.83,241.25-418.5,225.9-409,211c5.52-8.68,13.53-14.63,21.94-20.11a158.28,158.28,0,0,1,32.95-16.65c16.28-5.83,25.72-17.71,28.72-34.24,1.57-8.68,5.48-14.69,12.78-19.1,4.28-2.58,8.08-5.88,12.13-8.81,8.11-5.86,12.76-13.32,12-23.77-.48-6.09,1.3-11.87,3.81-17.41,5.81-12.76,16.52-18.37,30.2-14.59C-235,61.7-216,69-196,73.12c52.11,10.78,86-26.81,89.67-67.39,2.5-27.21-2.76-53-10.2-78.64-6.71-23.07-15.75-45.34-26-67.07a37.63,37.63,0,0,1-3.21-23.26c1.85-10.91,2.13-21.94-.86-32.72-2.55-9.23-7.39-10.33-14-3.2-5.55,6-8.41,13.55-11.21,21-7.4,19.77-10.79,40.54-14.84,61.14-1.16,5.91.63,11.18,3.43,16.27,5.51,10,12.79,18.7,20.92,26.63,5.38,5.25,6.93,10.59,4.17,17.94-5.11,13.64-3.3,28.31-5.18,42.47-1.63,12.28-3.21,24.47-9.34,35.5-6.66,12-15.5,15.49-28.45,11.17-18.41-6.14-30.15-20.28-41.21-35C-254.65-18.44-258-19.21-275.22-7.64A122.22,122.22,0,0,0-297.32,11c-5.41,5.91-11.46,6.66-19,4.41-17-5.08-28.23-15.94-34-32.48a114.74,114.74,0,0,1-6.22-45.26c.38-6.23,2.86-11.62,5.85-16.84,21.63-37.73,33.86-78.08,34.13-121.78a31,31,0,0,1,3.37-13.46c8.74-18.07,11-37.6,12.46-57.25.25-3.15,1.57-7.59-1.65-9.27-3.85-2-6.55,2.14-9.25,4.36-35.05,28.78-68.9,58.94-99.95,92-61.64,65.63-115,137.34-157.53,217C-587.85,67.47-604.84,103.3-619,140.31c-18.74,49-30.78,99.95-38.37,151.88-3.08,21.08-4.54,42.35-6.91,63.52-1.14,3.55-.74,7.27-1.26,10.87-.4,2.75,0,6.35-4.47,6.42V-698.87H1286V435c-5.5-.65-4.3-5.21-4.44-8.4-3.3-76.86-21.4-150.82-43.31-224.09a745.87,745.87,0,0,0-47.92-120.62c-35.46-70.71-74.94-139.09-125.4-200.44-27.94-34-56.81-67.19-88.8-97.45-46.43-43.92-98.36-80.62-152-115-27.52-17.64-55.39-34.75-84.68-49.17-35-17.22-71.47-31.05-107.93-44.92-15.84-6-28.41-5.86-43.66,3.39-31.4,19.06-65.24,33.38-101.83,40-14.49,2.62-29,4-43.75,3.19-2.91-.16-7.26.22-7.65-3.1-.49-4.14,4.18-4.6,7.21-5.18,11.44-2.21,23.06-3.59,34.28-6.91,27.88-8.28,55.25-18.75,71.84-44,41.84-63.77,40.82-128.13-11.92-182.35-17.52-18-40.17-27-64.41-32.13-51.79-10.91-100.53-2.16-147,22.52-51,27.11-91.46,66.22-127.31,110.7a229.58,229.58,0,0,0-16,21.72c-6,9.55-14.58,15.55-25.65,17.51-43.28,7.68-78,29.81-106.17,62.85-8,9.37-17.93,15.76-28.61,21.38-34,17.86-69.22,32.85-104.88,47-19,7.5-24.26,17-22.28,37.76C-104-287.09-93.33-267-80-248a335.16,335.16,0,0,0,44.73,51c6.48,6.09,10.91,12.86,12.49,22.05,2,11.94,8.89,21.49,19.1,28.23,13.51,8.92,28.42,13.93,44.3,17.4C96.41-117,151.41-102.31,202.4-75.58,226.78-62.8,240.58-41,252.53-17.64c10.62,20.81,20.36,42.1,27,64.5C293.25,93.67,319.3,133,350.84,169.39c9.19,10.6,18.27,21.36,28.89,30.41,21.55,18.36,27.44,43.14,30.87,69.4,5,38.58-2.78,76.28-7,114.26-4,36.07-8.09,72.21-.52,108.31,2.74,13,5.74,26.07,16.15,35.86s23.2,8.89,31.53-3a34.14,34.14,0,0,0,4.77-9.87c6.83-23,19.15-43.15,33.52-62.1,13-17.15,30.21-28.43,49.78-37.29,35.48-16.06,58.86-42.71,66.39-81.84.9-4.66-.26-12,6-11.95,4.85.05,4.5,7.19,5.45,11.62,4.22,19.61,1,37.94-6.87,56.44-31.93,74.91-28,148,13.38,218.57a373.94,373.94,0,0,0,30,43.62c2.57,3.23,6.94,7,3.93,11.21-2.53,3.57-7.45,1.46-11.28.52-34.66-8.47-69.42-16.52-104.85-20.93-12.74-1.59-25.56-4.56-38.67-1.34-16.11,4-23.11,13.74-20.09,30,6.67,35.91,25.86,64.86,52.17,89,33.21,30.46,68.66,58.14,108,80.47,52.21,29.63,107.6,50,167.71,55.3,63.43,5.58,124.74-4.7,184-27.55,8.4-3.24,16.6-7,25.14-9.82,2.12-.71,4.89-1.85,6.29.72s-1,4.31-2.69,5.81c-4.74,4.2-9.57,8.5-14.92,11.73-19.83,12-30.43,30.57-39.69,50.93-28.44,62.55-65.5,119.81-109.3,172.65-70.89,85.54-157.35,151.16-257.63,198.52C536.9,1329.54,469.91,1353,399.76,1366c-36.61,6.78-73.89,9.44-111.14,11.84-28.24,1.83-56.55,3.74-84.74,3.41-109.19-1.3-216.5-15.15-320-51.87a802.05,802.05,0,0,1-244.13-138c-66.05-54.45-122-117.91-170.68-188.1a1207.07,1207.07,0,0,1-86.8-147.1c-10.74-21.42-21.58-42.86-31.44-67.36,11.6,41.89,51.5,139.9,77.38,184.33,24.67,42.38,49.43,84.57,78.9,123.84,21.81,29.06,44.25,57.57,69.38,83.91,52.16,54.68,109.17,103.77,172.32,145.18,70.41,46.19,144.1,86.16,225.13,111.23,63.73,19.71,127.61,38.61,194.16,46.38,24.12,2.82,48.22,6,72.54,6.85C244.12,1490.65,248.92,1489.23,250,1495Z" transform="translate(670 698.87)"/><path class="cls-2" d="M250,1495c-10.93-3.46-22.37-2.66-33.54-3.54a924.29,924.29,0,0,1-195.92-37.19c-52-15.77-103.82-32-152.54-56.52-84.05-42.24-161.9-93.52-232.61-156-83.72-74-149.5-161.55-204.32-258.23-30.21-53.28-53.56-109.44-74.41-166.8-3.4-9.38-6-19.06-8.9-28.62-.53-1.75-2.23-4,.67-5,2.53-.79,3.13,1.78,3.92,3.52,2.9,6.36,5.73,12.76,8.63,19.13,40.78,89.5,89.72,174.1,151.1,251.19,77.48,97.31,170.19,176.15,282,231.69,73.62,36.57,151.25,60.78,232.2,74.77,60.92,10.53,122.31,15.11,184.05,14.84,64.39-.29,128.53-5,192.11-15.24,32.92-5.31,64.74-15.51,96.4-25.92,93-30.58,178.7-74.78,255.06-136.43C828.44,1140.5,888.37,1068,936,985a869,869,0,0,0,41.88-82.94,27.5,27.5,0,0,1,8.41-10.88c12.79-10.12,25.49-20.37,39.31-31.43-5.52.37-9.06,2.65-12.75,4.2-35.18,14.71-71.39,25.64-109.15,31.5-67.75,10.52-133.48,3.07-197.38-21.36-53.48-20.44-101.13-50.69-145.09-87-13.35-11-26.65-22.19-38.65-34.74A174.69,174.69,0,0,1,483.09,687a85.5,85.5,0,0,1-3.94-17.51c-2-17.12,6.42-28.08,23.63-31,13.05-2.17,26-.13,38.81,1.53,34.39,4.46,68.17,12.13,101.87,20.19,4.45,1.06,8.81,3.15,14,2.4-1.47-4.42-4.84-7.25-7.45-10.53-23.65-29.73-42.79-61.92-53.92-98.48C578.3,495.05,585,438.32,609.7,383.19c9.17-20.5,6.71-40.77,1.86-61.8-3.15,2.27-2.84,5.16-3.09,7.67-2.57,25.38-14,46.38-32.14,63.76-11.76,11.26-24.14,21.41-40.22,26.9-17.36,5.92-31,18-42.81,31.91-13.71,16.15-23.92,34.46-32.24,53.83-2.61,6.08-3.14,12.89-6.63,18.75-5.43,9.13-12.78,14.07-23.81,13.13a16.59,16.59,0,0,1-9.91-4c-7-6-11.69-13.55-15-22.09-7.23-18.66-8.75-38.28-9.07-57.95-.53-33.41,3.63-66.47,8.22-99.49,4.55-32.76,7.19-65.59,1.19-98.5a132.67,132.67,0,0,0-6.31-23.1A62.21,62.21,0,0,0,384.69,209c-23.46-22.8-45.23-47.13-64.24-73.82-17.7-24.84-31.8-51.38-40.95-80.72a414.89,414.89,0,0,0-45.86-99.58C228-54,220.18-60.73,211.58-66.57,193.25-79,173-87.58,152.34-95.19,118.52-107.65,83.83-117.12,48.72-125c-10.38-2.34-21-3.72-31-7.5-8.47-3.19-16.58-7-23.81-12.48-11.09-8.41-18.59-19.17-20-33.25-.56-5.55-3.46-9.07-7.12-12.6-17.52-16.94-34.09-34.73-48.2-54.68-9.85-13.93-18.37-28.58-23.52-45-4.81-15.34-5.58-30.65-.69-46.19,1.54-4.89,4.09-7.59,8.94-9.51,30.68-12.1,61.19-24.62,91-38.74,6-2.85,11.92-5.95,18-8.76,16.53-7.7,30.3-18.68,42.41-32.41,26.22-29.74,59.22-48.39,98.21-55.47,12.32-2.23,20.74-8.45,27.23-18.22,19.09-28.78,42.37-53.92,67.41-77.46,31.11-29.24,65.84-53,106-68.39,41.84-16.06,84.41-17.6,127.61-7.1C548.88-636.32,583.76-570,579.71-520c-2.88,35.71-14,68.63-39.29,95-17.31,18.1-40,27.19-63.76,33.7a207.42,207.42,0,0,1-32.3,6.41,26.81,26.81,0,0,0-9.95,3.06c24.12,2.35,45.95-.43,67.49-6.06,34.14-8.93,65.67-24,95.78-42,7.26-4.36,13.37-4.79,21.45-2.18,95.79,30.94,182.29,79.49,264.07,137.4C991.9-217.7,1077.85-120.22,1145.39-6c30.73,52,58.94,105.27,79.82,162.08a1062.45,1062.45,0,0,1,53,207.79c3.25,21.43,6.25,42.85,6.13,64.59,0,2.26-.32,4.73,1.64,6.56V559c-2.77,13.77-.91,27.74-1.69,41.62-2.33,41.76-9.47,82.71-19,123.27-12.93,55.17-27.09,110-50.36,162-42.79,95.69-94.33,185.75-163.72,265.11-47.13,53.91-99.57,101.75-155.75,146-42.7,33.6-88.55,61.53-137.41,85-21.62,10.36-42.75,21.78-64.41,32.09-78,37.09-160.43,59.13-245.59,71.71A804.78,804.78,0,0,1,333.7,1494c-1.34,0-2.65,0-3.7,1Z" transform="translate(670 698.87)"/><path class="cls-1" d="M330,1495c3.55-2.55,7.69-1.54,11.58-1.82,58.45-4.31,116.93-8.42,174.16-22.14,39.82-9.55,79.22-20.5,117.84-34.37a675.41,675.41,0,0,0,75.94-33c36.85-18.6,74.1-36.45,110-56.93,32.23-18.4,60.77-42,90.14-64.43,87-66.45,157.76-147.78,219.09-237.83,19.93-29.26,34.49-61.53,51.45-92.47,50.44-92,78.29-191.29,95.19-294,4.91-29.85,8.82-60,9-90.36,0-2.92-.48-6.05,1.68-8.6v936Z" transform="translate(670 698.87)"/><path class="cls-3" d="M-670,373c2.63-2.59,1.47-6,1.88-9s-.43-6.42,1.85-9.12c5.7,6.95,3.67,15.31,3.15,22.87-1.17,16.87.52,33.65.18,50.46-.09,4.53.65,9.4-3.33,13-3.79-4.79.33-11.41-3.73-16.15Z" transform="translate(670 698.87)"/><path class="cls-4" d="M-666.27,441.15c.46-12.91-.1-25.8-.69-38.7-.41-8.89.51-17.83.68-26.75.13-6.95,0-13.9,0-20.85,4.39-73.65,17.78-145.74,44.49-214.43,56.5-145.29,143.46-270.14,258.33-375.53q25.07-23,51.37-44.53c1.54-1.27,3.1-2.52,4.69-3.73,2.42-1.86,5.34-3.81,8.14-2.33,2.65,1.41,1.41,4.85,1.3,7.36-1,23.06-3.27,45.89-13.64,67-1.53,3.11-1.81,6.35-1.89,9.71-1,45.66-13.69,87.94-36.84,127.16a27.26,27.26,0,0,0-3.85,14.16c-.11,14.78,1.21,29.33,6.56,43.21,6.16,16,17.29,26.46,34.21,30.75,5.14,1.31,8.71.72,12.49-3.14a162,162,0,0,1,25.25-21.16,54.06,54.06,0,0,1,18.1-8.15c4.26-1,6.78.08,9.13,3.7a194.32,194.32,0,0,0,16.9,22.29,107.32,107.32,0,0,0,16.62,15.83,48.77,48.77,0,0,0,14,7.63c12.38,4,20.59.75,26.66-10.74,5.24-9.9,7.13-20.75,8.2-31.72.84-8.62,1.21-17.28,1.67-25.93.33-6.36.68-13.11,3.54-18.52,4.05-7.66,1-11.91-4.15-16.89A125.55,125.55,0,0,1-184.4-97.19a30.65,30.65,0,0,1-4.27-23.75c3.72-17.94,6.92-36,12.58-53.44a103.34,103.34,0,0,1,9.17-21,27.77,27.77,0,0,1,10.4-10.54c6-3.32,7.54-3,10.54,3.37a38.13,38.13,0,0,1,3.63,15.47c.16,7.32.84,14.84-.51,21.93-1.9,10.06.13,18.62,4.34,27.79C-123.45-104.64-110.71-71-105-35.15c2.94,18.58,3.78,37.21-1.23,55.54-7.82,28.55-25.76,48-54.56,55.58-14,3.69-28.51,1.36-42.62-1.68A261.71,261.71,0,0,1-237,64.63c-4.07-1.46-8.12-3-12.22-4.4-19.66-6.61-31.78.16-36.1,20.39a52.44,52.44,0,0,0-1.27,13.89c.34,5.94-2,10.19-6.08,14.06a137.27,137.27,0,0,1-21.46,16.3c-4.87,3.07-7.22,6.59-8,12.62-2.5,18.41-11.57,32-30,38.71a150.64,150.64,0,0,0-42,22.81c-5.55,4.35-10.49,9.26-14.06,15.41a27.88,27.88,0,0,0-2.08,25,18.06,18.06,0,0,0,6.41,8.45c10.15,7.74,18.6,17.17,24.07,28.9,6.61,14.14,4.39,26.38-6.25,37.63a22.87,22.87,0,0,1-12,6.56c-13.66,3.32-26.79,8.14-38.33,16.46-12.82,9.25-19.65,21.46-18.19,37.67a29.31,29.31,0,0,0,2.2,9.67A48,48,0,0,1-448,407.09c-.74,13.51,7.08,21.74,17.13,28.37,9.84,6.48,21.12,8,32.65,6.91,17.76-1.68,34.41-7.42,50.75-14.35,4.57-1.94,6.43-5.33,8.2-9.37a404.71,404.71,0,0,1,28.92-54.75c10.07-15.81,21.45-30.56,35.49-43.08,19.66-17.52,42-28.11,69.09-25.81,18.74,1.59,35.31,9.17,51,19.06,8.48,5.35,16.11,11.82,24,17.92,2.53,1.95,3.73,4.44,4.86,7.3,2.84,7.14,6.19,14.08,11.82,19.52,5.43,5.24,9.6,5.49,14.55-.1a59.14,59.14,0,0,0,14.9-33.2c.8-7.52-3.4-14.11-7.85-20.07-8.5-11.37-19.51-20-31-28.1-4.82-3.42-9.72-6.74-15.75-10.9,11.49-6.87,22.16-9.45,33.93-5.89,9.6,2.9,17,8.95,23.3,16.53A109.48,109.48,0,0,1-63,309.8a214.22,214.22,0,0,0,15.63,34.55,60.64,60.64,0,0,0,11.56,15c8.83,8,17.8,8.2,26.9.54,5.67-4.77,10.64-10.45,13.65-17.09C12.07,326.6,22.32,313.54,38.3,305c5.77-3.1,10.07-8.69,13.6-14.44,4.51-7.32,6.48-15,4.85-23.8-2.29-12.41-5.28-24.71-5-37.55.53-27.54,13.66-42.54,40.75-46.64,11.44-1.73,22.73-.92,33.81,1.07,21.31,3.83,42.34,9,62.45,17.33,6.79,2.81,13.34,6.09,18.54,11.51,6.86,7.13,7.22,14.61.93,22.29-5.4,6.59-12.68,10.71-20,14.72-10.58,5.78-21.26,10.14-34,9.09-13.31-1.09-26.62,1-39.49,4.86-25,7.55-40.32,23.69-44.16,50-2.16,14.77,3.27,23.57,17.77,27.74,14.09,4.06,28.41,2.49,42.68,1.18,1-.09,1.95-.45,2.94-.58,15.91-2,12.82-3.61,15.29,11,1.71,10.15,2.05,20.58-.93,30.74-4.07,13.9-13.21,21-27.73,21.5a58.94,58.94,0,0,1-17.77-1.91c-19-5.24-38.35-8.79-58.19-7.86C10.11,396.88-15.9,411.82-30.7,444a37,37,0,0,0-3.12,9.4c-1.24,7.42-5.25,10.91-12.93,11.24-45.3,1.92-83-13.25-107.65-52.39-11.39-18.1-27-21-45.19-20.26-14.46.59-28.31,4.75-41.37,10.78-59.82,27.58-112.5,64.87-154.22,116.36C-423.29,553.82-441,593.33-445.43,638c-3.87,38.77,2.94,76.18,15,113.06,16.54,50.44,49.55,86.82,94.36,113.28,26.92,15.9,56.65,23.06,87.72,24.44,48.87,2.17,95.17-9.56,140.29-27q18.17-7,35.77-15.41c4.4-2.1,8.44-1.64,12.6-1,19.57,3.27,35.61,12.63,47.83,28.35C2.25,891.93,9.26,913,13.88,935a335.06,335.06,0,0,1,6.67,61.51c.49,21.69,2.83,43.19,8.6,64.21a217.28,217.28,0,0,0,34.18,70.63c12.11,16.72,23.36,34.08,36.89,49.74,16.21,18.77,34.07,35.67,55.64,48.26,33.25,19.39,67.72,22.54,103.51,7.63,3.4-1.42,6.8-2.84,9.6-5.26,25-21.59,46.25-46,58.66-77.24,4.87-12.25,6.19-25.16,8.34-38,7.34-43.48,20.59-84.75,45.89-121.46,1.7-2.47,3.42-4.93,5.23-7.32,17-22.56,16.93-47.84,1.85-72.32-12.84-20.83-20.38-44-25.07-68.11a126.84,126.84,0,0,1-1.25-42.78c5-33.93,24.35-58.37,52.31-76.86,3.71-2.45,5.88-1.81,7.85,2,2.13,4.14,4.59,8.12,7,12.12C488.49,840.09,573.4,904.79,682.15,939a662.07,662.07,0,0,0,129,26.35c15.9,1.69,31.81,3.26,47.8,3.88,2.25.09,4.78-.35,6.4,2.95-4.62,3.1-7,8.22-9.94,12.94C784.2,1099.55,685.78,1182.4,563,1236.93c-63.34,28.13-129.49,47-197.45,60-28.21,5.39-56.75,7.59-85.3,9.59a907.9,907.9,0,0,1-121.88.28c-96.23-6.23-189-27.2-278-64.6-76.06-32-145.37-75.11-210.91-125.06-76.56-58.36-135.08-131.9-184-213.68-53.25-88.92-89.94-184.84-119.5-283.86a830.87,830.87,0,0,1-26.86-122.75C-663.54,478.37-665.27,459.79-666.27,441.15Z" transform="translate(670 698.87)"/><path class="cls-2" d="M306.77-658.16c0,5.4-.29,9.73-6.65,12.79-57.12,27.5-102.21,69.15-139.24,120-4.89,6.73-9.63,13.58-14.16,20.56-2.36,3.62-5,5.77-9.59,6-6,.31-11.6,2.84-17.29,4.67-4.18,1.34-5.68-.65-5.24-4.48,4.85-42.06,10.77-83.87,29.25-122.69,8.24-17.29,18.43-33.25,32.76-46.12,28-25.16,60.41-35.45,97.8-27.69a54.76,54.76,0,0,1,10.42,3.34C299.74-685.32,306.74-674.47,306.77-658.16Z" transform="translate(670 698.87)"/><path class="cls-1" d="M490.38,914.45c19.84,9.86,30.8,29.36,29,49.5-.41,4.55-2.53,8.06-5,11.66-7.86,11.34-12.2,23.6-8.68,37.58a59.24,59.24,0,0,0,2.65,7.47,56.12,56.12,0,0,1,4.1,26.35c-1.32,14.42-11.24,21.87-25.36,19.35-12.33-2.2-21.22-8.89-26.86-20.06-5.2-10.29-7.05-21.39-8-32.69-.28-3.31,0-6.67-.34-10-1.39-13.51,1.82-24.36,12.25-34.63C478.75,954.57,486.77,935.66,490.38,914.45Z" transform="translate(670 698.87)"/></svg>